<svg width="549" height="480" viewBox="0 0 549 480" fill="none" xmlns="http://www.w3.org/2000/svg">
<g clip-path="url(#clip0)">
<path opacity="0.2" d="M497.015 172.605H465.328V189.072H497.015V172.605Z" fill="white"/>
<path opacity="0.2" d="M499.453 192.732H467.766V209.199H499.453V192.732Z" fill="white"/>
<path opacity="0.2" d="M473.25 53.0623H441.563V69.5299H473.25V53.0623Z" fill="white"/>
<path opacity="0.2" d="M495.797 71.9695H464.11V88.4371H495.797V71.9695Z" fill="white"/>
<path opacity="0.2" d="M434.86 54.2821H403.173V70.7497H434.86V54.2821Z" fill="white"/>
<path opacity="0.2" d="M536.624 90.8767H504.937V107.344H536.624V90.8767Z" fill="white"/>
<path opacity="0.2" d="M498.234 92.0966H466.547V108.564H498.234V92.0966Z" fill="white"/>
<path opacity="0.2" d="M457.407 73.1893H425.72V89.6569H457.407V73.1893Z" fill="white"/>
<path opacity="0.2" d="M534.796 217.738H503.109V234.206H534.796V217.738Z" fill="white"/>
<path opacity="0.2" d="M496.406 218.958H464.719V235.426H496.406V218.958Z" fill="white"/>
<path d="M79.6743 168.335C79.6743 168.335 124.335 213.036 99.1251 279.339C73.9158 345.643 142.335 455.994 142.335 455.994C142.335 455.994 141.604 455.884 140.245 455.646C48.5236 439.441 2.94931 334.445 53.9774 256.468C72.9164 227.442 88.4796 193.427 79.6743 168.335Z" fill="white"/>
<path d="M79.6743 168.335C79.6743 168.335 104.884 223.13 79.6743 267.824C54.4649 312.518 75.3539 437.989 142.341 455.994" stroke="#535461" stroke-width="2" stroke-miterlimit="10"/>
<path d="M0.127975 349.125C0.127975 349.125 51.089 341.001 55.7324 386.714C60.3757 432.427 153.73 438.764 153.73 438.764C153.73 438.764 153.121 439.179 151.981 439.929C74.903 490.551 1.22483 472.187 12.3335 404.944C16.4589 379.944 16.1177 354.834 0.127975 349.125Z" fill="white"/>
<path opacity="0.2" d="M0.127975 349.125C0.127975 349.125 51.089 341.001 55.7324 386.714C60.3757 432.427 153.73 438.764 153.73 438.764C153.73 438.764 153.121 439.179 151.981 439.929C74.903 490.551 1.22483 472.187 12.3335 404.944C16.4589 379.944 16.1177 354.834 0.127975 349.125Z" fill="#F5F5F5"/>
<path d="M0.127975 349.125C0.127975 349.125 39.6818 357.817 36.4339 393.813C33.1859 429.81 95.1765 472.986 153.73 438.764" stroke="#535461" stroke-width="2" stroke-miterlimit="10"/>
<path opacity="0.2" d="M32.0708 173.215H0.383896V189.682H32.0708V173.215Z" fill="white"/>
<path opacity="0.2" d="M54.6172 192.122H22.9303V208.59H54.6172V192.122Z" fill="white"/>
<path opacity="0.2" d="M225.848 0H194.161V16.4676H225.848V0Z" fill="white"/>
<path opacity="0.2" d="M475.687 303.736H444.001V320.203H475.687V303.736Z" fill="white"/>
<path opacity="0.2" d="M57.0547 212.249H25.3678V228.717H57.0547V212.249Z" fill="white"/>
<path opacity="0.2" d="M248.395 18.9072H216.708V35.3748H248.395V18.9072Z" fill="white"/>
<path opacity="0.2" d="M132.616 130.521H100.929V146.989H132.616V130.521Z" fill="white"/>
<path opacity="0.2" d="M155.162 149.428H123.475V165.896H155.162V149.428Z" fill="white"/>
<path opacity="0.2" d="M215.489 139.06H183.802V155.527H215.489V139.06Z" fill="white"/>
<path opacity="0.2" d="M157.6 169.555H125.913V186.023H157.6V169.555Z" fill="white"/>
<path opacity="0.2" d="M518.343 303.736H486.656V320.203H518.343V303.736Z" fill="white"/>
<path d="M439.138 238.542C437.086 227.114 435.828 215.557 435.372 203.954C434.967 194.399 431.619 185.203 425.786 177.627C419.954 170.051 411.924 164.466 402.795 161.639C399.468 160.614 395.806 159.656 391.76 158.796C356.295 151.258 345.521 157.839 344.296 158.705C343.259 156.818 342.357 154.859 341.597 152.844C341.536 152.636 341.481 152.429 341.42 152.234C348.439 144.742 352.716 135.091 353.553 124.855C359.47 118.853 362.925 111.608 362.925 103.807C362.925 97.0978 360.365 90.8036 355.887 85.357V74.7568C355.887 62.5327 351.035 50.8093 342.399 42.1656C333.763 33.5218 322.05 28.6658 309.837 28.6658H306.102C300.054 28.6658 294.066 29.858 288.479 32.1743C282.892 34.4906 277.816 37.8856 273.54 42.1656C269.264 46.4455 265.872 51.5265 263.557 57.1185C261.243 62.7106 260.052 68.704 260.052 74.7568V86.1804C255.988 91.4318 253.684 97.4272 253.684 103.795C253.684 111.431 256.999 118.53 262.691 124.458C263.468 135.07 267.941 145.072 275.329 152.722C275.579 154.454 275.835 156.314 276.084 158.278L212.65 171.69C212.65 171.69 188.19 172.696 172.432 205.235C159.105 232.797 132.585 303.608 124.731 324.686C123.311 328.504 122.506 330.694 122.506 330.694C122.506 330.694 122.768 330.432 123.262 329.98L122.506 332.036C122.506 332.036 122.89 331.645 123.622 331.005C122.513 339.824 122.354 354.968 133.895 356.853C143.572 358.433 168.507 359.085 187.343 359.347H188.647C201.133 359.512 210.633 359.512 210.633 359.512V359.347H413.209V357.268C413.212 355.381 412.832 353.514 412.094 351.778L412.375 351.437C413.459 352.87 414.18 354.544 414.477 356.316C414.454 356.489 414.421 356.66 414.379 356.828L414.501 356.517C414.549 357.071 414.508 357.629 414.379 358.17C414.379 358.17 440.369 291.147 440.088 251.125C440.163 246.91 439.845 242.698 439.138 238.542ZM277.139 167.335C276.803 165.423 276.587 163.492 276.493 161.553C276.493 161.553 276.493 161.517 276.493 161.498C276.718 163.383 276.937 165.335 277.139 167.335ZM198.397 311.299V327.272L188.403 329.413L198.397 311.299Z" fill="url(#paint0_linear)"/>
<path d="M306.943 35.1126C319.156 35.1126 330.869 39.9686 339.505 48.6123C348.141 57.2561 352.992 68.9795 352.992 81.2036V100.867H260.893V81.2036C260.893 68.9795 265.745 57.2561 274.381 48.6123C283.017 39.9686 294.729 35.1126 306.943 35.1126Z" fill="#E14B5A"/>
<path d="M307.265 143.414C336.255 143.414 359.756 127.252 359.756 107.314C359.756 87.376 336.255 71.2132 307.265 71.2132C278.276 71.2132 254.775 87.376 254.775 107.314C254.775 127.252 278.276 143.414 307.265 143.414Z" fill="#E14B5A"/>
<path d="M273.616 142.286C273.616 142.286 284.585 199.66 273.616 215.134C262.648 230.607 307.131 236.731 307.131 236.731L353.175 219.971L359.616 178.71C359.616 178.71 331.585 162.913 337.392 131.003L273.616 142.286Z" fill="#F7C4A7"/>
<path d="M409.517 335.689C409.517 335.689 412.417 348.259 396.635 350.516C387.316 351.888 377.839 351.775 368.555 350.18L365.076 318.605H401.79L409.517 335.689Z" fill="#F7C4A7"/>
<path d="M130.83 319.599C130.83 319.599 123.859 347.954 139.642 350.516C155.424 353.078 213.375 353.096 213.375 353.096V319.551L187.136 325.162L162.505 301.522L130.83 319.599Z" fill="#F7C4A7"/>
<path opacity="0.1" d="M277.004 160.821L215.331 173.873C215.331 173.873 191.822 174.843 176.685 206.107C161.548 237.371 128.698 326.662 128.698 326.662C128.698 326.662 156.728 298.295 189.567 328.596L211.467 288.951L206.635 351.809H376.331V322.149C376.331 322.149 411.753 341.166 409.181 351.803C409.181 351.803 439.497 273.624 432.947 238.097C430.975 227.114 429.765 216.007 429.327 204.857C428.94 195.673 425.723 186.835 420.117 179.554C414.512 172.274 406.792 166.908 398.018 164.194C394.825 163.212 391.315 162.291 387.415 161.468C351.024 153.734 341.713 161.468 341.713 161.468C341.713 161.468 334.662 184.425 334.79 194.83C334.949 208.205 315.79 217.073 315.79 217.073C315.79 217.073 287.449 210.303 286.163 204.826C284.877 199.349 274.738 167.268 277.004 160.821Z" fill="black"/>
<path d="M277.004 159.534L215.331 172.587C215.331 172.587 191.822 173.556 176.685 204.82C161.548 236.084 128.691 325.388 128.691 325.388C128.691 325.388 156.722 297.021 189.561 327.321L211.461 287.677L206.629 350.516H376.331V320.862C376.331 320.862 411.753 339.879 409.182 350.516C409.182 350.516 439.497 272.337 432.947 236.81C430.975 225.827 429.765 214.72 429.327 203.57C428.94 194.386 425.723 185.548 420.117 178.267C414.512 170.987 406.792 165.621 398.018 162.907C394.825 161.925 391.315 161.004 387.415 160.181C351.024 152.447 341.713 160.181 341.713 160.181C341.713 160.181 334.662 183.138 334.79 193.543C334.949 206.918 315.79 215.787 315.79 215.787C315.79 215.787 287.449 209.017 286.163 203.54C284.877 198.063 274.738 165.981 277.004 159.534Z" fill="#575988"/>
<path opacity="0.1" d="M340.025 156.796C337.434 149.455 336.854 141.554 338.343 133.912L274.567 145.189C274.567 145.189 275.487 150.014 276.529 157.241C280.65 161.521 285.597 164.917 291.07 167.223C296.544 169.529 302.428 170.697 308.366 170.655C314.305 170.613 320.172 169.363 325.613 166.981C331.053 164.598 335.952 161.133 340.013 156.796H340.025Z" fill="black"/>
<path d="M350.902 123.916C350.852 135.418 346.288 146.439 338.193 154.604C330.099 162.769 319.123 167.423 307.632 167.562C296.14 167.701 285.055 163.315 276.765 155.349C268.476 147.382 263.646 136.474 263.318 124.977C263.318 124.623 263.318 124.269 263.318 123.916C263.316 115.707 265.616 107.663 269.957 100.699C274.297 93.7346 280.503 88.1295 287.869 84.5215C289.182 83.879 290.53 83.3016 291.916 82.7893C299.121 80.1383 306.892 79.4151 314.462 80.6912C324.164 82.3447 333.025 87.2227 339.616 94.5376C346.207 101.853 350.142 111.177 350.786 121.006C350.863 121.97 350.902 122.94 350.902 123.916Z" fill="#F7C4A7"/>
<g opacity="0.1">
<path opacity="0.1" d="M291.849 83.8201L291.91 83.7835C290.524 84.2958 289.175 84.8732 287.863 85.5156C280.497 89.1237 274.291 94.7288 269.95 101.693C265.61 108.658 263.31 116.702 263.312 124.91C263.312 125.264 263.312 125.617 263.312 125.971C264.674 125.934 266.013 125.612 267.242 125.026C277.919 120.037 284.305 104.777 286.84 94.1337C287.754 90.3217 288.613 86.0279 291.849 83.8201Z" fill="black"/>
<path opacity="0.1" d="M325.37 85.046C321.903 83.452 318.242 82.3221 314.48 81.6854C317.565 82.3958 320.32 84.128 322.298 86.6013C323.268 87.9211 324.072 89.3549 324.693 90.8706C318.865 88.3198 312.552 87.0669 306.192 87.1985C299.831 87.3301 293.576 88.8432 287.857 91.633C290.605 97.6651 299.13 100.952 304.822 103.154C311.054 105.561 317.35 107.763 323.712 109.76L318.082 105.185L330.799 107.21C330.936 104.677 330.635 102.139 329.909 99.7083C332.347 101.672 335.577 102.331 338.221 103.978C343.175 107.106 345.241 113.126 347.94 118.341C348.653 119.719 349.494 121.128 350.78 122C350.26 114.122 347.625 106.53 343.153 100.025C338.68 93.5211 332.536 88.3459 325.37 85.046Z" fill="black"/>
</g>
<path d="M291.849 82.8259L291.91 82.7893C290.524 83.3017 289.175 83.8791 287.863 84.5215C280.497 88.1295 274.291 93.7346 269.95 100.699C265.61 107.663 263.31 115.707 263.312 123.916C263.312 124.269 263.312 124.623 263.312 124.977C264.674 124.94 266.013 124.618 267.242 124.032C277.919 119.042 284.305 103.782 286.84 93.1395C287.754 89.352 288.613 85.0399 291.849 82.8259Z" fill="#632652"/>
<path d="M325.37 84.0579C321.903 82.464 318.242 81.334 314.48 80.6973C317.565 81.4078 320.32 83.14 322.298 85.6132C323.268 86.933 324.072 88.3668 324.693 89.8826C318.865 87.3318 312.552 86.0788 306.192 86.2105C299.831 86.3421 293.576 87.8552 287.857 90.645C290.605 96.677 299.13 99.9644 304.822 102.166C311.054 104.573 317.35 106.775 323.712 108.772L318.082 104.197L330.799 106.222C330.936 103.689 330.635 101.151 329.909 98.7202C332.347 100.684 335.577 101.343 338.221 102.99C343.175 106.118 345.241 112.138 347.94 117.353C348.653 118.731 349.494 120.14 350.78 121.012C350.26 113.134 347.625 105.542 343.153 99.0374C338.68 92.5331 332.536 87.3579 325.37 84.0579Z" fill="#632652"/>
<path opacity="0.1" d="M258.315 116.688C258.315 116.688 303.408 60.5764 355.576 116.688L351.066 104.118C351.066 104.118 326.588 68.3405 309.203 76.062C291.818 83.7835 274.744 89.2788 274.744 89.2788L258.315 116.688Z" fill="black"/>
<path d="M258.315 115.694C258.315 115.694 303.408 59.5822 355.576 115.694L351.066 103.124C351.066 103.124 326.588 67.3464 309.203 75.0679C291.818 82.7893 274.744 88.2846 274.744 88.2846L258.315 115.694Z" fill="#E14B5A"/>
<path opacity="0.1" d="M221.278 236.572C221.278 236.572 211.62 262.359 225.142 285.566C238.663 308.774 213.228 318.447 213.228 318.447" fill="black"/>
<path opacity="0.1" d="M377.793 213.365C377.793 213.365 394.539 234.639 383.588 253.656C372.638 272.673 373.284 318.447 373.284 318.447" fill="black"/>
<path d="M206.465 337.464H392.607C396.707 337.464 400.639 339.094 403.538 341.996C406.438 344.898 408.066 348.833 408.066 352.937H191.011C191.011 348.834 192.639 344.9 195.537 341.998C198.435 339.096 202.366 337.465 206.465 337.464Z" fill="#535461"/>
<path d="M225.404 231.089H373.674C376.795 231.089 379.885 231.704 382.768 232.9C385.652 234.095 388.272 235.847 390.478 238.056C392.685 240.265 394.436 242.887 395.63 245.773C396.824 248.659 397.439 251.752 397.439 254.876V341.007H201.638V254.876C201.638 248.567 204.142 242.517 208.599 238.056C213.056 233.595 219.101 231.089 225.404 231.089Z" fill="#535461"/>
<path d="M299.374 302.491C305.779 302.491 310.97 297.295 310.97 290.885C310.97 284.475 305.779 279.278 299.374 279.278C292.97 279.278 287.778 284.475 287.778 290.885C287.778 297.295 292.97 302.491 299.374 302.491Z" fill="white"/>
<path opacity="0.1" d="M260.893 90.3888C260.893 90.3888 305.206 46.0605 352.998 89.5776" stroke="black" stroke-miterlimit="10"/>
<path d="M364.192 87.5649H359.744V112.809H364.192V87.5649Z" fill="#6A5C99"/>
<path d="M353.809 103.898C357.875 103.898 361.775 105.515 364.65 108.393C367.525 111.271 369.14 115.174 369.14 119.244V120.232C369.14 124.302 367.525 128.205 364.65 131.083C361.775 133.96 357.875 135.577 353.809 135.577V103.898Z" fill="#FFD037"/>
<path d="M357.763 105.881C357.763 103.967 356.214 102.416 354.302 102.416C352.391 102.416 350.841 103.967 350.841 105.881V133.601C350.841 135.514 352.391 137.065 354.302 137.065C356.214 137.065 357.763 135.514 357.763 133.601V105.881Z" fill="#6A5C99"/>
<path d="M249.242 113.303H253.69V88.059H249.242V113.303Z" fill="#6A5C99"/>
<path d="M259.625 136.071C255.559 136.071 251.66 134.454 248.784 131.577C245.909 128.699 244.294 124.796 244.294 120.726V119.738C244.294 117.723 244.69 115.727 245.461 113.865C246.231 112.004 247.361 110.312 248.784 108.887C250.208 107.462 251.898 106.332 253.758 105.56C255.618 104.789 257.612 104.392 259.625 104.392V136.071Z" fill="#FFD037"/>
<path d="M255.671 134.089C255.671 136.002 257.22 137.553 259.132 137.553C261.043 137.553 262.593 136.002 262.593 134.089V106.368C262.593 104.455 261.043 102.904 259.132 102.904C257.22 102.904 255.671 104.455 255.671 106.368V134.089Z" fill="#6A5C99"/>
<path d="M359.22 60.5825C353.193 48.0427 340.067 32.8803 311.775 31.6666V31.63H311.433L301.409 32.1057V32.1545C273.306 33.4475 260.241 48.555 254.233 61.0521C250.231 69.524 248.107 78.7617 248.005 88.1322L251.466 88.0468L254.927 87.9675C255.077 79.625 256.994 71.4094 260.552 63.8638C268.181 48.1769 282.221 39.8394 302.275 39.0648L311.141 38.5708C331.207 39.3393 345.253 47.6889 352.876 63.3698C356.44 70.9182 358.361 79.1382 358.513 87.4856L361.974 87.5649L365.435 87.6503C365.336 78.2849 363.215 69.0516 359.22 60.5825Z" fill="#FFD037"/>
<path d="M517.343 353.138H45.2635V480H517.343V353.138Z" fill="#D6D6E3"/>
<path opacity="0.1" d="M517.343 361.677H45.2635V378.145H517.343V361.677Z" fill="black"/>
<path d="M549 351.309H13.5949V367.776H549V351.309Z" fill="#D6D6E3"/>
</g>
<defs>
<linearGradient id="paint0_linear" x1="281.3" y1="359.543" x2="281.3" y2="28.6658" gradientUnits="userSpaceOnUse">
<stop stop-color="#808080" stop-opacity="0.25"/>
<stop offset="0.54" stop-color="#808080" stop-opacity="0.12"/>
<stop offset="1" stop-color="#808080" stop-opacity="0.1"/>
</linearGradient>
<clipPath id="clip0">
<rect width="549" height="480" fill="white"/>
</clipPath>
</defs>
</svg>
